<?xml version="1.0" encoding="utf-8"?>
<!-- Generator: Adobe Illustrator 17.0.2, SVG Export Plug-In . SVG Version: 6.00 Build 0)  -->
<!DOCTYPE svg PUBLIC "-//W3C//DTD SVG 1.1//EN" "http://www.w3.org/Graphics/SVG/1.1/DTD/svg11.dtd">
<svg version="1.1" id="Layer_1" xmlns="http://www.w3.org/2000/svg" xmlns:xlink="http://www.w3.org/1999/xlink" x="0px" y="0px"
	 width="280px" height="233px" viewBox="0 0 280 233" enable-background="new 0 0 280 233" xml:space="preserve">
<g>
	<g>
		<g>
			<g>
				<g>
					<g>
						<path id="SVGID_1_" fill="#FFFFFF" d="M242.521,5.382v78.239c0,9.798,7.971,17.77,17.77,17.77h12.175V89.544h-12.175
							c-3.267,0-5.923-2.657-5.923-5.923V38.207h18.649V26.36h-18.649V5.382H242.521z"/>
					</g>
				</g>
			</g>
		</g>
		<g>
			<g>
				<g>
					<g>
						<path id="SVGID_3_" fill="#FFFFFF" d="M186.303,26.36c-9.798,0-17.77,7.971-17.77,17.77v7.737
							c0,9.798,7.972,17.77,17.769,17.77l34.555,0.003c3.266,0,5.923,2.657,5.923,5.923v8.057c0,3.266-2.657,5.923-5.923,5.923
							h-49.363v11.847h49.363c9.798,0,17.77-7.972,17.77-17.77v-8.057c0-9.798-7.972-17.77-17.77-17.77l-34.554-0.003
							c-3.265,0-5.923-2.657-5.923-5.923v-7.737c0-3.267,2.658-5.923,5.923-5.923h49.363V26.36
							C235.665,26.36,186.303,26.36,186.303,26.36z"/>
					</g>
				</g>
			</g>
		</g>
		<g>
			<g>
				<g>
					<g>
						<path id="SVGID_5_" fill="#FFFFFF" d="M112.697,26.36c-9.798,0-17.77,7.971-17.77,17.77v39.49
							c0,9.798,7.972,17.77,17.77,17.77h49.974V89.544h-49.974c-3.266,0-5.923-2.657-5.923-5.923v-39.49
							c0-3.267,2.657-5.923,5.923-5.923h34.554c3.266,0,5.923,2.656,5.923,5.923v15.003l-31.899,10.572v12.48l43.745-14.498V44.131
							c0-9.799-7.971-17.77-17.77-17.77C147.251,26.36,112.697,26.36,112.697,26.36z"/>
					</g>
				</g>
			</g>
		</g>
		<g>
			<g>
				<g>
					<g>
						<path id="SVGID_7_" fill="#FFFFFF" d="M21.27,5.382v15.055c0,9.799,7.972,17.77,17.77,17.77h33.566
							c3.267,0,5.923,2.656,5.923,5.923v39.49c0,3.265-2.656,5.923-5.923,5.923h-2.04h-9.598H35.406
							c-3.266,0-5.923-2.658-5.923-5.923V55.282H17.635v28.339c0,9.798,7.971,17.77,17.77,17.77h37.2
							c9.799,0,17.77-7.972,17.77-17.77v-39.49c0-9.799-7.971-17.77-17.77-17.77H39.04c-3.266,0-5.923-2.657-5.923-5.923V5.382
							H21.27z"/>
					</g>
				</g>
			</g>
		</g>
		<g>
			<g>
				<g>
					<g>
						<path id="SVGID_9_" fill="#FFFFFF" d="M103.41,110.981v13.059h54.412c3.6,0,6.529,2.928,6.529,6.529v8.527
							c0,3.601-2.929,6.529-6.529,6.529l-38.088,0.004c-10.8,0-19.589,8.788-19.589,19.589v8.88c0,10.8,8.789,19.588,19.589,19.588
							h54.411v-13.058h-54.411c-3.601,0-6.53-2.929-6.53-6.53v-8.88c0-3.601,2.929-6.53,6.53-6.53l38.089-0.004
							c10.8,0,19.587-8.788,19.587-19.588v-8.527c0-10.801-8.787-19.588-19.588-19.588L103.41,110.981L103.41,110.981z"/>
					</g>
				</g>
			</g>
		</g>
		<g>
			<g>
				<g>
					<g>
						<path id="SVGID_11_" fill="#FFFFFF" d="M217.477,110.893c-10.801,0-19.588,8.787-19.588,19.588v43.529
							c0,10.8,8.787,19.589,19.588,19.589h38.088c8.86,0,16.365-5.913,18.777-14v-19.703c-2.411-8.087-9.916-14.001-18.776-14.001
							l-32.647-0.006l-0.002,13.059l32.648,0.006c3.601,0,6.529,2.929,6.529,6.53v8.525c0,3.601-2.928,6.53-6.529,6.53h-38.088
							c-3.601,0-6.53-2.929-6.53-6.53v-43.529c0-3.601,2.929-6.53,6.53-6.53h54.988v-13.058L217.477,110.893L217.477,110.893z"/>
					</g>
				</g>
			</g>
		</g>
		<g>
			<g>
				<g>
					<g>
						<path id="SVGID_13_" fill="#FFFFFF" d="M37.284,110.893c-10.801,0-19.588,8.787-19.588,19.588v8.527
							c0,10.8,8.787,19.588,19.586,19.588l32.647,0.004l0.003-13.058l-32.648-0.005c-3.601,0-6.529-2.929-6.529-6.529v-8.527
							c0-3.601,2.928-6.53,6.529-6.53h38.088c3.601,0,6.53,2.929,6.53,6.53v43.529c0,3.601-2.929,6.53-6.53,6.53H22.049V193.6
							h53.323c10.801,0,19.588-8.789,19.588-19.589v-43.529c0-10.801-8.787-19.588-19.588-19.588L37.284,110.893L37.284,110.893z"/>
					</g>
				</g>
			</g>
		</g>
		<g>
			<g>
				<g>
					<g>
						<path id="SVGID_15_" fill="#FFFFFF" d="M180.24,185.941c0,3.882,3.148,7.029,7.03,7.029c3.88,0,7.028-3.147,7.028-7.029
							c0-3.881-3.148-7.028-7.028-7.028C183.388,178.913,180.24,182.06,180.24,185.941"/>
					</g>
				</g>
			</g>
		</g>
		<g>
			<path fill="#FFFFFF" d="M6.078,16.354c-0.059,0.145-0.089,0.219-0.089,0.219s0.034-0.072,0.1-0.214
				c0.01-0.023,0.047-0.085,0.05-0.077C6.105,16.289,6.096,16.34,6.078,16.354"/>
			<polyline fill="#FFFFFF" points="6.139,16.283 6.14,16.283 6.141,16.281 6.139,16.283 			"/>
			<path fill="#FFFFFF" d="M115.323,218.875c-0.994,0.401-2.531,0.755-4.612,1.057c-1.683,0.238-2.761,0.6-3.242,1.082
				c-0.48,0.48-0.718,1.065-0.718,1.755c0,1.761,1.111,2.639,3.338,2.639c0.784,0,1.489-0.099,2.111-0.299
				c0.628-0.199,1.168-0.508,1.624-0.925c0.455-0.417,0.82-0.935,1.091-1.551c0.273-0.616,0.409-1.525,0.409-2.724L115.323,218.875
				L115.323,218.875z M115.562,225.167c-1.921,1.633-3.971,2.449-6.148,2.449c-1.732,0-3.111-0.426-4.144-1.285
				c-1.032-0.856-1.548-2.02-1.548-3.492c0-0.849,0.184-1.61,0.551-2.282c0.366-0.672,0.977-1.27,1.827-1.79
				c0.849-0.521,2.239-0.901,4.176-1.142c2.322-0.287,4.003-0.609,5.046-0.96v-0.745c0-2.259-1.337-3.386-4.012-3.386
				c-1.457,0-2.475,0.272-3.063,0.816c-0.583,0.545-1.012,1.332-1.285,2.355l-2.737-0.361c0.721-3.426,3.219-5.136,7.494-5.136
				c1.201,0,2.23,0.128,3.086,0.383c0.856,0.256,1.554,0.639,2.088,1.15c0.537,0.514,0.884,1.091,1.045,1.732
				c0.161,0.639,0.239,1.648,0.239,3.026v7.325c0,0.35,0.069,0.866,0.204,1.538c0.138,0.672,0.363,1.295,0.685,1.871h-2.954
				C115.826,226.639,115.642,225.951,115.562,225.167"/>
			<path fill="#FFFFFF" d="M126.756,224.712l0.409,2.498c-0.803,0.156-1.514,0.238-2.137,0.238c-0.883,0-1.614-0.131-2.2-0.397
				c-0.585-0.266-1.017-0.659-1.295-1.19c-0.283-0.527-0.42-1.694-0.42-3.503v-9.583h-2.066v-2.184h2.066v-4.131l2.809-1.682v5.813
				h2.833v2.184h-2.833v9.75c0,0.754,0.046,1.262,0.145,1.525c0.094,0.266,0.261,0.458,0.504,0.577
				c0.239,0.12,0.551,0.179,0.935,0.179C125.829,224.807,126.245,224.773,126.756,224.712"/>
			<path fill="#FFFFFF" d="M129.494,227.233v-22.984h2.833v8.236c1.311-1.518,2.969-2.279,4.97-2.279
				c1.472,0,2.656,0.281,3.544,0.853c0.889,0.568,1.479,1.321,1.778,2.256c0.295,0.938,0.443,2.062,0.443,3.373v10.544h-2.833
				v-10.544c0-2.705-1.17-4.06-3.508-4.06c-1.071,0-1.95,0.25-2.639,0.748c-0.688,0.495-1.153,1.134-1.393,1.921
				c-0.239,0.784-0.361,1.727-0.361,2.833v9.101h-2.833V227.233z"/>
			<path fill="#FFFFFF" d="M147.533,217.315h9.292c-0.128-1.6-0.616-2.801-1.466-3.591c-0.846-0.793-1.878-1.189-3.094-1.189
				c-0.899,0-1.682,0.196-2.353,0.59c-0.672,0.389-1.224,0.94-1.647,1.643C147.839,215.471,147.596,216.321,147.533,217.315
				 M156.802,221.878l2.904,0.358c-0.961,3.587-3.4,5.381-7.325,5.381c-1.665,0-3.085-0.341-4.262-1.02
				c-1.177-0.682-2.082-1.66-2.716-2.932c-0.631-1.272-0.946-2.813-0.946-4.622c0-2.705,0.695-4.856,2.088-6.449
				c1.393-1.591,3.291-2.387,5.693-2.387c0.527,0,1.032,0.039,1.515,0.117c0.463,0.082,0.91,0.199,1.344,0.361
				c0.432,0.161,0.833,0.361,1.199,0.6c0.383,0.239,0.738,0.514,1.057,0.816c0.338,0.339,0.642,0.705,0.915,1.106
				c0.289,0.417,0.534,0.858,0.744,1.321c0.19,0.465,0.35,0.971,0.478,1.515c0.128,0.527,0.217,1.088,0.266,1.679
				c0.017,0.176,0.023,0.81,0.023,1.898h-12.415c0.097,1.745,0.593,3.125,1.488,4.144c0.899,1.017,2.082,1.525,3.554,1.525
				C154.52,225.289,155.986,224.15,156.802,221.878"/>
			<path fill="#FFFFFF" d="M161.297,227.233v-16.643h2.545v2.355c1.216-1.827,2.986-2.738,5.307-2.738
				c3.778,0,5.669,2.016,5.669,6.052v10.974h-2.81v-10.135c0-2.96-1.153-4.441-3.458-4.441c-2.948,0-4.42,1.822-4.42,5.475v9.101
				H161.297z"/>
			<path fill="#FFFFFF" d="M176.064,222.262l2.787-0.432c0.338,2.304,1.776,3.458,4.324,3.458c2.545,0,3.816-0.881,3.816-2.645
				c0-0.639-0.222-1.114-0.672-1.416c-0.445-0.306-1.465-0.659-3.049-1.057c-1.026-0.256-1.941-0.501-2.751-0.731
				c-0.81-0.233-1.52-0.565-2.139-0.997c-0.616-0.432-1.076-0.931-1.38-1.502c-0.304-0.568-0.455-1.212-0.455-1.932
				c0-0.832,0.202-1.596,0.613-2.295c0.406-0.695,1.068-1.288,1.98-1.776c0.91-0.489,2.088-0.731,3.531-0.731
				c1.329,0,2.455,0.167,3.383,0.501c0.932,0.338,1.65,0.838,2.164,1.502c0.511,0.665,0.863,1.557,1.055,2.678l-2.759,0.361
				c-0.273-1.809-1.489-2.714-3.653-2.714c-2.4,0-3.6,0.711-3.6,2.134c0,0.401,0.114,0.744,0.347,1.032
				c0.233,0.289,0.511,0.495,0.84,0.623c0.327,0.128,1.239,0.403,2.727,0.82c0.384,0.094,1.253,0.327,2.603,0.698
				c1.354,0.367,2.378,0.932,3.076,1.691c0.695,0.761,1.043,1.696,1.043,2.801c0,1.633-0.639,2.923-1.921,3.866
				c-1.278,0.945-2.882,1.417-4.801,1.417C179.073,227.617,176.707,225.832,176.064,222.262"/>
		</g>
	</g>
	<path fill="#E20613" d="M61.836,60.004c-3.373-5.751-9.089-8.894-13.594-7.8c-0.484-0.586-0.976-1.176-1.531-1.789
		c-1.401-1.53-3.056-3.134-5.136-4.539c-2.052-1.407-4.63-2.572-7.439-2.908c-2.805-0.356-5.662,0.102-8.229,0.99
		c-1.292,0.44-2.539,0.966-3.747,1.551c-1.185,0.568-2.427,1.297-3.412,1.8c-0.462,0.23-0.948,0.407-1.244,0.464
		c-0.093-0.801,0.144-2.098,0.336-3.24c0.408-2.491,0.973-5.126,0.303-7.793c-0.33-1.318-1.197-2.571-2.34-3.244
		c-1.186-0.702-2.271-0.844-3.199-1.373c-1.92-0.93-3.471-2.316-4.495-3.888c-2.065-3.193-2.22-6.597-2.195-8.794
		c0.024-1.125,0.124-2.006,0.195-2.605c0.017-0.151,0.032-0.283,0.046-0.398c0.004-0.058,0.011-0.11,0.005-0.162
		c-0.01-0.007-0.012,0.006-0.02,0.006c0.003,0.044-0.007,0.097-0.013,0.153c-0.019,0.114-0.042,0.245-0.067,0.394
		c-0.104,0.595-0.253,1.473-0.34,2.603c-0.083,1.128-0.114,2.515,0.098,4.094c0.215,1.571,0.684,3.355,1.692,5.082
		c0.993,1.728,2.59,3.328,4.605,4.442c0.984,0.61,2.209,0.905,2.966,1.508c0.817,0.605,1.321,1.499,1.494,2.545
		c0.348,2.121-0.319,4.511-0.967,6.937c-0.294,1.273-0.764,2.396-0.712,4.187c0.047,0.45,0.154,1.109,0.758,1.707
		c0.624,0.589,1.392,0.673,1.877,0.667c1.01-0.04,1.691-0.301,2.379-0.546c1.368-0.549,2.396-1.05,3.575-1.491
		c1.15-0.434,2.305-0.8,3.446-1.078c2.285-0.567,4.523-0.671,6.497-0.231c3.97,0.858,6.89,3.897,9.048,6.722
		c0.439,0.582,0.833,1.151,1.219,1.717c-2.008,3.532-1.674,8.994,1.228,13.941c3.852,6.567,10.759,9.734,15.429,7.075
		C65.024,74.051,65.688,66.572,61.836,60.004"/>
</g>
</svg>
